<svg width="32" height="30" viewBox="0 0 32 30" fill="none" xmlns="http://www.w3.org/2000/svg">
<path d="M15 29.999C12.9289 29.999 10.9811 29.6046 9.15667 28.8157C7.33222 28.0257 5.745 26.9557 4.395 25.6057C3.04389 24.2546 1.97389 22.6668 1.185 20.8424C0.395 19.0179 0 17.0701 0 14.999C0 12.9279 0.394444 10.9801 1.18333 9.15569C1.97222 7.33125 3.04278 5.74402 4.395 4.39402C5.74722 3.04402 7.33444 1.97347 9.15667 1.18236C10.9822 0.393468 12.93 -0.000976562 15 -0.000976562C18.8844 -0.000976562 22.2356 1.28069 25.0533 3.84402C27.8711 6.40736 29.4839 9.57347 29.8917 13.3424H28.205C27.9128 10.9301 27.0417 8.76513 25.5917 6.84736C24.1417 4.92958 22.2778 3.51458 20 2.60236V3.33236C20 4.24902 19.6739 5.03402 19.0217 5.68736C18.3694 6.34069 17.5844 6.6668 16.6667 6.66569H13.3333V9.99902C13.3333 10.4712 13.1733 10.8674 12.8533 11.1874C12.5333 11.5074 12.1378 11.6668 11.6667 11.6657H8.33333V14.999H11.41V19.999H10L2 11.999C1.91667 12.499 1.84056 12.999 1.77167 13.499C1.70278 13.999 1.66778 14.499 1.66667 14.999C1.66667 18.6379 2.94444 21.7629 5.5 24.374C8.05556 26.9851 11.2222 28.3046 15 28.3324V29.999ZM30.0383 29.549L24.2883 23.8657C23.7906 24.2201 23.2511 24.4979 22.67 24.699C22.0889 24.899 21.4767 24.999 20.8333 24.999C19.1989 24.999 17.8183 24.4357 16.6917 23.309C15.5639 22.1801 15 20.799 15 19.1657C15 17.5324 15.5639 16.1518 16.6917 15.024C17.8194 13.8962 19.2 13.3324 20.8333 13.3324C22.4667 13.3324 23.8478 13.8962 24.9767 15.024C26.1056 16.1518 26.6689 17.5324 26.6667 19.1657C26.6667 19.8301 26.5611 20.4579 26.35 21.049C26.1389 21.6412 25.8444 22.1862 25.4667 22.684L31.2167 28.3707L30.0383 29.549ZM20.8333 23.3324C22 23.3324 22.9861 22.9296 23.7917 22.124C24.5972 21.3185 25 20.3324 25 19.1657C25 17.999 24.5972 17.0129 23.7917 16.2074C22.9861 15.4018 22 14.999 20.8333 14.999C19.6667 14.999 18.6806 15.4018 17.875 16.2074C17.0694 17.0129 16.6667 17.999 16.6667 19.1657C16.6667 20.3324 17.0694 21.3185 17.875 22.124C18.6806 22.9296 19.6667 23.3324 20.8333 23.3324Z" fill="#EF6D27"/>
</svg>
