<svg width="25" height="25" viewBox="0 0 25 25" fill="none" xmlns="http://www.w3.org/2000/svg">
<g clip-path="url(#clip0_698_106)">
<path fillRule="evenodd" clipRule="evenodd" d="M11.844 22.7964C11.844 22.7964 4.58203 16.6804 4.58203 10.6624C4.58203 8.54062 5.42489 6.50579 6.92518 5.0055C8.42547 3.50521 10.4603 2.66235 12.582 2.66235C14.7038 2.66235 16.7386 3.50521 18.2389 5.0055C19.7392 6.50579 20.582 8.54062 20.582 10.6624C20.582 16.6804 13.32 22.7964 13.32 22.7964C12.916 23.1684 12.251 23.1644 11.844 22.7964ZM12.582 14.1624C13.0417 14.1624 13.4968 14.0718 13.9214 13.8959C14.3461 13.72 14.7319 13.4622 15.0569 13.1372C15.3819 12.8122 15.6397 12.4264 15.8156 12.0017C15.9915 11.5771 16.082 11.122 16.082 10.6624C16.082 10.2027 15.9915 9.7476 15.8156 9.32296C15.6397 8.89832 15.3819 8.51249 15.0569 8.18748C14.7319 7.86247 14.3461 7.60467 13.9214 7.42878C13.4968 7.25288 13.0417 7.16235 12.582 7.16235C11.6538 7.16235 10.7635 7.5311 10.1072 8.18748C9.45078 8.84386 9.08203 9.7341 9.08203 10.6624C9.08203 11.5906 9.45078 12.4809 10.1072 13.1372C10.7635 13.7936 11.6538 14.1624 12.582 14.1624Z" fill="#EF6D27"/>
<g clip-path="url(#clip1_698_106)">
<path d="M25.1367 0.4375H1.13672V24.4375H25.1367V0.4375Z" fill="white"/>
<path d="M19.1367 9.43701C19.1367 14.1832 15.3823 18.9294 13.8132 20.7058C13.4476 21.1197 12.8258 21.1197 12.4602 20.7058C10.8912 18.9294 7.13672 14.1832 7.13672 9.43701C7.13672 7.43701 8.63672 3.43701 13.1367 3.43701C17.6367 3.43701 19.1367 7.43701 19.1367 9.43701Z" stroke="#EF6D27" strokeWidth="1.18125" strokeLinejoin="round"/>
<path d="M13.1367 11.4373C14.2413 11.4373 15.1367 10.5418 15.1367 9.43726C15.1367 8.33269 14.2413 7.43726 13.1367 7.43726C12.0321 7.43726 11.1367 8.33269 11.1367 9.43726C11.1367 10.5418 12.0321 11.4373 13.1367 11.4373Z" stroke="#EF6D27" strokeWidth="1.18125" strokeLinejoin="round"/>
</g>
</g>
<defs>
<clipPath id="clip0_698_106">
<rect width="24" height="24" fill="white" transform="translate(0.582031 0.662354)"/>
</clipPath>
<clipPath id="clip1_698_106">
<rect width="24" height="24" fill="white" transform="translate(1.13672 0.4375)"/>
</clipPath>
</defs>
</svg>
