<svg width="24" height="24" viewBox="0 0 24 24" fill="none" xmlns="http://www.w3.org/2000/svg">
<path d="M8.90595 16.5001H15.0934C15.1966 16.5001 15.2809 16.4157 15.2809 16.3126V14.3438C15.2809 14.2407 15.1966 14.1563 15.0934 14.1563H14.1559C14.0528 14.1563 13.9684 14.2407 13.9684 14.3438V15.1876H10.0309V14.3438C10.0309 14.2407 9.94657 14.1563 9.84345 14.1563H8.90595C8.80282 14.1563 8.71845 14.2407 8.71845 14.3438V16.3126C8.71845 16.4157 8.80282 16.5001 8.90595 16.5001ZM16.8747 13.6173C16.8747 13.8659 16.9735 14.1044 17.1493 14.2802C17.3251 14.456 17.5636 14.5548 17.8122 14.5548C18.0608 14.5548 18.2993 14.456 18.4751 14.2802C18.6509 14.1044 18.7497 13.8659 18.7497 13.6173C18.7497 13.3686 18.6509 13.1302 18.4751 12.9544C18.2993 12.7786 18.0608 12.6798 17.8122 12.6798C17.5636 12.6798 17.3251 12.7786 17.1493 12.9544C16.9735 13.1302 16.8747 13.3686 16.8747 13.6173ZM22.4763 9.68916L21.9208 8.71885C21.8958 8.67607 21.8549 8.64492 21.8071 8.63218C21.7592 8.61945 21.7083 8.62617 21.6653 8.65088L20.477 9.34463L18.6419 4.27744C18.545 3.97508 18.3545 3.71134 18.098 3.5243C17.8414 3.33725 17.532 3.23658 17.2145 3.23682H7.05907C6.24579 3.23682 5.52392 3.76182 5.27314 4.5376L3.5247 9.34697L2.33407 8.65322C2.29115 8.62851 2.24019 8.62179 2.19232 8.63453C2.14446 8.64726 2.10358 8.67842 2.07861 8.72119L1.52314 9.68916C1.47157 9.77822 1.50204 9.89072 1.59111 9.94229L3.00673 10.7673L2.66689 11.7048C2.63876 11.7798 2.6247 11.8595 2.6247 11.9392V20.1001C2.6247 20.4681 2.90126 20.7657 3.24111 20.7657H4.82548C5.11376 20.7657 5.36454 20.5478 5.42548 20.2431L5.60595 19.3595H18.3934L18.5739 20.2431C18.6372 20.5478 18.8856 20.7657 19.1739 20.7657H20.7583C21.0981 20.7657 21.3747 20.4681 21.3747 20.1001V11.9392C21.3747 11.8595 21.3606 11.7798 21.3325 11.7048L20.9927 10.7673L22.4059 9.94229C22.4485 9.91772 22.4797 9.87743 22.4928 9.8301C22.506 9.78276 22.5 9.73215 22.4763 9.68916ZM19.6872 12.1173V17.672H4.3122V12.1173L4.67782 11.1095H19.3216L19.6872 12.1173ZM6.85986 5.11182L6.87157 5.08135L6.88095 5.05088C6.90673 4.97354 6.97704 4.92197 7.05907 4.92197H17.0809L18.8481 9.79697H5.15595L6.85986 5.11182ZM5.2497 13.6173C5.2497 13.8659 5.34847 14.1044 5.52429 14.2802C5.7001 14.456 5.93856 14.5548 6.1872 14.5548C6.43584 14.5548 6.6743 14.456 6.85011 14.2802C7.02593 14.1044 7.1247 13.8659 7.1247 13.6173C7.1247 13.3686 7.02593 13.1302 6.85011 12.9544C6.6743 12.7786 6.43584 12.6798 6.1872 12.6798C5.93856 12.6798 5.7001 12.7786 5.52429 12.9544C5.34847 13.1302 5.2497 13.3686 5.2497 13.6173Z" fill="#EF6D27"/>
</svg>
