<svg width="68" height="67" viewBox="0 0 68 67" fill="none" xmlns="http://www.w3.org/2000/svg">
<path d="M48.1441 17.0847C47.6948 15.7594 46.8187 14.8159 45.3362 14.8159H21.7498C20.2672 14.8159 19.4136 15.7594 18.9419 17.0847L14.4492 29.9786V46.826C14.4492 48.0615 14.8985 48.5108 16.134 48.5108H17.2571C18.4926 48.5108 18.9419 48.0615 18.9419 46.826V44.0181H48.1441V46.826C48.1441 48.0615 48.5933 48.5108 49.8288 48.5108H50.952C52.1875 48.5108 52.6367 48.0615 52.6367 46.826V29.9786L48.1441 17.0847Z" stroke="#FF991B" strokeWidth="2"/>
<path d="M21.1897 37.279C20.5939 37.279 20.0226 37.0424 19.6013 36.6211C19.18 36.1998 18.9434 35.6285 18.9434 35.0327C18.9434 34.4369 19.18 33.8656 19.6013 33.4443C20.0226 33.023 20.5939 32.7864 21.1897 32.7864C21.7854 32.7864 22.3568 33.023 22.7781 33.4443C23.1993 33.8656 23.436 34.4369 23.436 35.0327C23.436 35.6285 23.1993 36.1998 22.7781 36.6211C22.3568 37.0424 21.7854 37.279 21.1897 37.279ZM45.8992 37.279C45.3035 37.279 44.7321 37.0424 44.3109 36.6211C43.8896 36.1998 43.6529 35.6285 43.6529 35.0327C43.6529 34.4369 43.8896 33.8656 44.3109 33.4443C44.7321 33.023 45.3035 32.7864 45.8992 32.7864C46.495 32.7864 47.0664 33.023 47.4876 33.4443C47.9089 33.8656 48.1456 34.4369 48.1456 35.0327C48.1456 35.6285 47.9089 36.1998 47.4876 36.6211C47.0664 37.0424 46.495 37.279 45.8992 37.279Z" stroke="#FF991B" strokeWidth="2"/>
<path d="M19.5039 26.0474L22.3118 18.1853H44.775L47.583 26.0474H19.5039Z" stroke="#FF991B" strokeWidth="2" strokeLinejoin="round"/>
</svg>
