<svg width="28" height="28" viewBox="0 0 28 28" fill="none" xmlns="http://www.w3.org/2000/svg">
<rect width="28" height="28" rx="3" fill="white"/>
<g clip-path="url(#clip0_445_14)">
<path d="M19.2484 8.16663C19.7125 8.16663 20.1575 7.98225 20.4856 7.65406C20.8137 7.32587 20.998 6.88075 20.998 6.41663C20.998 5.9525 20.8137 5.50738 20.4856 5.17919C20.1575 4.851 19.7125 4.66663 19.2484 4.66663C18.7844 4.66663 18.3394 4.851 18.0113 5.17919C17.6832 5.50738 17.4989 5.9525 17.4989 6.41663C17.4989 6.88075 17.6832 7.32587 18.0113 7.65406C18.3394 7.98225 18.7844 8.16663 19.2484 8.16663ZM16.1758 11.9765C16.2123 11.9619 16.2451 11.9474 16.2815 11.9328L15.6656 14.2479C15.4614 15.0171 15.6619 15.8375 16.2014 16.4244L18.7783 19.2354L19.5801 22.4474C19.7369 23.0708 20.3711 23.4536 20.9943 23.2968C21.6176 23.1401 22.0003 22.5057 21.8436 21.8822L21.0053 18.5244C20.936 18.2401 20.7939 17.9812 20.597 17.7661L18.7928 15.7974L19.4963 13.4093L19.8462 14.2479C20.0066 14.6343 20.3018 14.9515 20.6772 15.1411L21.6504 15.626C22.2263 15.914 22.9261 15.6807 23.214 15.1046C23.502 14.5286 23.2687 13.8286 22.6928 13.5406L21.9092 13.1505L21.3515 11.8088C20.7246 10.3104 19.2594 9.33329 17.6338 9.33329C16.8028 9.33329 15.9827 9.50829 15.2245 9.84371L14.9329 9.97131C13.7338 10.5036 12.8153 11.5171 12.4034 12.7604L12.3086 13.0448C12.1045 13.6572 12.4362 14.3171 13.0449 14.5213C13.6536 14.7255 14.317 14.3937 14.5211 13.7849L14.6158 13.5005C14.8236 12.877 15.2828 12.3739 15.8806 12.1078L16.1722 11.9802L16.1758 11.9765ZM15.0824 16.902L14.1712 19.177L12.0061 21.3427C11.5505 21.7984 11.5505 22.5385 12.0061 22.9942C12.4617 23.45 13.2016 23.45 13.6572 22.9942L15.9061 20.7447C16.0738 20.577 16.205 20.3765 16.2925 20.1578L16.821 18.838L15.3375 17.2192C15.2464 17.1208 15.1626 17.0151 15.0824 16.9057V16.902ZM12.8335 14.6599C12.5529 14.4994 12.1993 14.5942 12.0353 14.875L10.8689 16.8947L8.88613 15.75C8.32847 15.4291 7.61408 15.6187 7.29333 16.1765L4.96063 20.2197C4.63988 20.7776 4.82941 21.4921 5.38708 21.813L7.40632 22.9796C7.96399 23.3005 8.67838 23.1109 8.99912 22.5531L11.3318 18.5099C11.3865 18.4151 11.4266 18.3203 11.4521 18.2182L13.0486 15.4583C13.2089 15.1776 13.1142 14.8239 12.8335 14.6599Z" fill="#FF5900"/>
</g>
<defs>
<clipPath id="clip0_445_14">
<rect width="21" height="18.6667" fill="white" transform="translate(3.5 4.66663)"/>
</clipPath>
</defs>
</svg>
