<svg width="28" height="28" viewBox="0 0 28 28" fill="none" xmlns="http://www.w3.org/2000/svg">
<rect width="28" height="28" rx="3" fill="white"/>
<path d="M17.209 16.75H18.584V15.8334H17.209V16.75ZM18.584 18.5834H17.209V17.6667H18.584V18.5834ZM17.209 20.4167H18.584V19.5H17.209V20.4167Z" fill="#305CDE"/>
<path fill-rule="evenodd" clip-rule="evenodd" d="M10.792 4.83337L18.1253 7.58337V14H19.9587C20.0802 14 20.1968 14.0483 20.2827 14.1343C20.3687 14.2202 20.417 14.3368 20.417 14.4584V22.25H20.8753C20.9969 22.25 21.1135 22.2983 21.1994 22.3843C21.2854 22.4702 21.3337 22.5868 21.3337 22.7084C21.3337 22.8299 21.2854 22.9465 21.1994 23.0325C21.1135 23.1184 20.9969 23.1667 20.8753 23.1667H7.12533C7.00377 23.1667 6.88719 23.1184 6.80123 23.0325C6.71528 22.9465 6.66699 22.8299 6.66699 22.7084C6.66699 22.5868 6.71528 22.4702 6.80123 22.3843C6.88719 22.2983 7.00377 22.25 7.12533 22.25H7.58366V12.625C7.58366 12.5035 7.63195 12.3869 7.7179 12.3009C7.80386 12.215 7.92043 12.1667 8.04199 12.1667H8.95866V8.95837H9.87533V12.1667H10.792V4.83337ZM19.5003 22.25H18.5837V21.3334H17.2087V22.25H16.292V14.9167H19.5003V22.25ZM10.792 13.0834H8.50033V22.25H10.792V13.0834ZM13.0837 8.95837H12.167V9.87504H13.0837V8.95837ZM14.0003 8.95837H14.917V9.87504H14.0003V8.95837ZM16.7503 8.95837H15.8337V9.87504H16.7503V8.95837ZM12.167 10.7917H13.0837V11.7084H12.167V10.7917ZM14.917 10.7917H14.0003V11.7084H14.917V10.7917ZM15.8337 10.7917H16.7503V11.7084H15.8337V10.7917ZM13.0837 12.625H12.167V13.5417H13.0837V12.625ZM14.0003 12.625H14.917V13.5417H14.0003V12.625ZM16.7503 12.625H15.8337V13.5417H16.7503V12.625ZM12.167 14.4584H13.0837V15.375H12.167V14.4584ZM14.917 14.4584H14.0003V15.375H14.917V14.4584ZM13.0837 16.2917H12.167V17.2084H13.0837V16.2917ZM14.0003 16.2917H14.917V17.2084H14.0003V16.2917ZM12.167 18.125H13.0837V19.0417H12.167V18.125ZM14.917 18.125H14.0003V19.0417H14.917V18.125ZM13.0837 19.9584H12.167V20.875H13.0837V19.9584ZM14.0003 19.9584H14.917V20.875H14.0003V19.9584Z" fill="#305CDE"/>
</svg>
