<svg width="28" height="28" viewBox="0 0 28 28" fill="none" xmlns="http://www.w3.org/2000/svg">
<rect width="28" height="28" rx="3" fill="white"/>
<g clip-path="url(#clip0_445_80)">
<path d="M23.0003 22.9733H22.3337C21.6264 22.9733 20.9481 22.6924 20.448 22.1923C19.9479 21.6922 19.667 21.0139 19.667 20.3067C19.667 21.0139 19.386 21.6922 18.8859 22.1923C18.3858 22.6924 17.7076 22.9733 17.0003 22.9733C16.2931 22.9733 15.6148 22.6924 15.1147 22.1923C14.6146 21.6922 14.3337 21.0139 14.3337 20.3067C14.3337 21.0139 14.0527 21.6922 13.5526 22.1923C13.0525 22.6924 12.3742 22.9733 11.667 22.9733C10.9597 22.9733 10.2815 22.6924 9.78137 22.1923C9.28128 21.6922 9.00033 21.0139 9.00033 20.3067C9.00033 21.0139 8.71937 21.6922 8.21928 22.1923C7.71918 22.6924 7.0409 22.9733 6.33366 22.9733H5.66699M18.3337 17.64C17.647 16.8051 16.7839 16.1327 15.8064 15.6711C14.8289 15.2094 13.7613 14.97 12.6803 14.97C11.5993 14.97 10.5317 15.2094 9.55426 15.6711C8.57678 16.1327 7.71369 16.8051 7.02699 17.64" stroke="#FF5900" stroke-width="1.33333" stroke-linecap="round" stroke-linejoin="round"/>
<path d="M13.6673 15.0399C13.7473 12.0266 14.6673 9.27989 16.6673 8.29322M12.6807 5.75989C13.545 5.5897 14.4416 5.75757 15.1858 6.2289C15.9301 6.70023 16.4651 7.4391 16.6807 8.29322" stroke="#FF5900" stroke-width="1.33333" stroke-linecap="round" stroke-linejoin="round"/>
<path d="M21.547 8.78645C20.9333 8.12381 20.0988 7.70803 19.2003 7.61719C18.3017 7.52635 17.4009 7.76671 16.667 8.29311" stroke="#FF5900" stroke-width="1.33333" stroke-linecap="round" stroke-linejoin="round"/>
<path d="M11.7734 9.71986C12.2959 8.95013 13.0703 8.38658 13.9634 8.12619C14.8566 7.8658 15.8125 7.92486 16.6668 8.29319C17.5237 8.50276 18.2655 9.03716 18.7358 9.78353C19.206 10.5299 19.3677 11.4298 19.1868 12.2932" stroke="#FF5900" stroke-width="1.33333" stroke-linecap="round" stroke-linejoin="round"/>
</g>
<defs>
<clipPath id="clip0_445_80">
<rect width="18.6667" height="18.6667" fill="white" transform="translate(5 5)"/>
</clipPath>
</defs>
</svg>
