<svg width="25" height="25" viewBox="0 0 25 25" fill="none" xmlns="http://www.w3.org/2000/svg">
<path d="M8.35254 10.9067H16.3525M7.35254 14.9067H8.35254M16.3525 14.9067H17.3525" stroke="#FF991B" strokeWidth="1.5" strokeLinecap="round" strokeLinejoin="round"/>
<path d="M3.35254 18.9067V12.3167C3.35274 12.0461 3.40786 11.7784 3.51454 11.5297L5.83354 6.11974C5.98758 5.75986 6.24384 5.45311 6.57055 5.23749C6.89727 5.02187 7.28008 4.90687 7.67154 4.90674H17.0335C17.4249 4.90678 17.8076 5.02163 18.1343 5.23707C18.461 5.4525 18.7173 5.75905 18.8715 6.11874L21.1915 11.5287C21.2981 11.7781 21.3529 12.0465 21.3525 12.3177V18.9067M3.35254 18.9067V21.3067C3.35254 21.4659 3.41575 21.6185 3.52828 21.731C3.6408 21.8435 3.79341 21.9067 3.95254 21.9067H6.75254C6.91167 21.9067 7.06428 21.8435 7.1768 21.731C7.28932 21.6185 7.35254 21.4659 7.35254 21.3067V18.9067M3.35254 18.9067H7.35254M21.3525 18.9067V21.3067C21.3525 21.4659 21.2893 21.6185 21.1768 21.731C21.0643 21.8435 20.9117 21.9067 20.7525 21.9067H17.9525C17.8737 21.9067 17.7957 21.8912 17.7229 21.8611C17.6501 21.8309 17.584 21.7867 17.5283 21.731C17.4726 21.6753 17.4284 21.6091 17.3982 21.5363C17.3681 21.4636 17.3525 21.3855 17.3525 21.3067V18.9067M21.3525 18.9067H17.3525M7.35254 18.9067H17.3525" stroke="#FF991B" strokeWidth="1.5"/>
</svg>
