<svg width="25" height="25" viewBox="0 0 25 25" fill="none" xmlns="http://www.w3.org/2000/svg">
<g clip-path="url(#clip0_289_883)">
<path d="M0.965898 22.2818H23.4659V23.7818H0.965898V22.2818ZM21.5763 7.66448C20.48 7.35909 19.3145 7.38074 18.2946 7.72542L18.2527 7.73948L15.2012 9.18979L6.29582 5.64942C5.90706 5.49323 5.48226 5.44935 5.06978 5.5228C4.65731 5.59624 4.27376 5.78405 3.9628 6.06482L2.77059 7.13348C2.64481 7.24624 2.54605 7.38587 2.48162 7.54202C2.41719 7.69816 2.38875 7.86681 2.3984 8.03545C2.40806 8.2041 2.45557 8.3684 2.53741 8.51617C2.61925 8.66394 2.73331 8.79138 2.87113 8.88904L8.39146 12.8011L6.27398 13.9103L4.59702 12.3781C4.27638 12.0858 3.87815 11.8922 3.45016 11.8207C3.02217 11.7492 2.58264 11.8028 2.18437 11.975L1.27241 12.3704C1.12988 12.4322 1.00168 12.5228 0.895891 12.6365C0.790104 12.7503 0.709024 12.8847 0.657757 13.0314C0.60649 13.178 0.586148 13.3337 0.598013 13.4886C0.609877 13.6435 0.653692 13.7942 0.726695 13.9313L4.14018 20.3451L22.73 11.1823C23.8431 10.6583 23.9788 9.82078 23.734 9.21074C23.4627 8.53443 22.6761 7.97085 21.5763 7.66448ZM22.0872 9.82696L22.0802 9.83024L4.78124 18.3568L2.24174 13.5849L2.7808 13.3512C2.91356 13.2937 3.06008 13.2759 3.20275 13.2997C3.34542 13.3235 3.47817 13.3881 3.58504 13.4856L6.03829 15.7271L11.2568 12.9934L4.12162 7.93682L4.96401 7.18176C5.06767 7.08819 5.19551 7.0256 5.333 7.00112C5.47048 6.97664 5.61208 6.99125 5.74166 7.04329L15.2546 10.8252L18.8148 9.13326C19.5393 8.89846 20.4021 8.89115 21.1896 9.1139C21.838 9.29737 22.1825 9.5639 22.2992 9.70368C22.2332 9.75236 22.1622 9.79374 22.0873 9.8271L22.0872 9.82696Z" fill="#FF991B"/>
</g>
<defs>
<clipPath id="clip0_289_883">
<rect width="24" height="24" fill="white" transform="translate(0.21582 0.531738)"/>
</clipPath>
</defs>
</svg>
