<svg width="25" height="25" viewBox="0 0 25 25" fill="none" xmlns="http://www.w3.org/2000/svg">
<path d="M3.70215 4.53174V20.5317C3.70215 21.4747 3.70215 21.9457 3.99515 22.2387C4.28815 22.5317 4.75915 22.5317 5.70215 22.5317H19.7021C20.6451 22.5317 21.1161 22.5317 21.4091 22.2387C21.7021 21.9457 21.7021 21.4747 21.7021 20.5317V4.53174M11.2021 8.53174V10.0317M11.2021 10.0317V11.5317M11.2021 10.0317H14.2021M14.2021 8.53174V10.0317M14.2021 10.0317V11.5317" stroke="#FF991B" strokeWidth="1.5" strokeLinecap="round" strokeLinejoin="round"/>
<path d="M14.7021 22.5317V18.5317C14.7021 18.0013 14.4914 17.4926 14.1164 17.1175C13.7413 16.7425 13.2326 16.5317 12.7021 16.5317C12.1717 16.5317 11.663 16.7425 11.2879 17.1175C10.9129 17.4926 10.7021 18.0013 10.7021 18.5317V22.5317M2.70215 4.53174H8.70215C9.34215 3.35874 10.8921 2.53174 12.7021 2.53174C14.5121 2.53174 16.0621 3.35874 16.7021 4.53174H22.7021M6.70215 8.53174H7.70215M6.70215 12.5317H7.70215M6.70215 16.5317H7.70215M17.7021 8.53174H18.7021M17.7021 12.5317H18.7021M17.7021 16.5317H18.7021" stroke="#FF991B" strokeWidth="1.5" strokeLinecap="round" strokeLinejoin="round"/>
</svg>
