<svg width="25" height="25" viewBox="0 0 25 25" fill="none" xmlns="http://www.w3.org/2000/svg">
<g clip-path="url(#clip0_289_893)">
<path d="M19.1026 6.15674V5.17874C19.1042 4.91461 19.0537 4.65277 18.954 4.40817C18.8543 4.16357 18.7074 3.94101 18.5216 3.75322C18.3359 3.56544 18.115 3.4161 17.8715 3.31375C17.628 3.2114 17.3667 3.15805 17.1026 3.15674H3.10258C2.83845 3.15805 2.57717 3.2114 2.33367 3.31375C2.09018 3.4161 1.86925 3.56544 1.6835 3.75322C1.49776 3.94101 1.35085 4.16357 1.25117 4.40817C1.15149 4.65277 1.10099 4.91461 1.10258 5.17874V14.6347C1.10099 14.8989 1.15149 15.1607 1.25117 15.4053C1.35085 15.6499 1.49776 15.8725 1.6835 16.0603C1.86925 16.248 2.09018 16.3974 2.33367 16.4997C2.57717 16.6021 2.83845 16.6554 3.10258 16.6567M11.6916 22.6567L16.1306 16.3497C16.261 16.1635 16.4321 16.0093 16.6308 15.8989C16.8296 15.7885 17.0509 15.7247 17.2779 15.7123C17.505 15.7 17.7319 15.7395 17.9414 15.8277C18.151 15.916 18.3377 16.0507 18.4876 16.2217L23.4256 21.8647" stroke="#FF991B" strokeWidth="1.5" strokeLinecap="round" strokeLinejoin="round"/>
<path d="M11.2275 14.4067C11.1281 14.4067 11.0327 14.3672 10.9624 14.2969C10.892 14.2266 10.8525 14.1312 10.8525 14.0317C10.8525 13.9323 10.892 13.8369 10.9624 13.7666C11.0327 13.6962 11.1281 13.6567 11.2275 13.6567M11.2275 14.4067C11.327 14.4067 11.4224 14.3672 11.4927 14.2969C11.563 14.2266 11.6025 14.1312 11.6025 14.0317C11.6025 13.9323 11.563 13.8369 11.4927 13.7666C11.4224 13.6962 11.327 13.6567 11.2275 13.6567" stroke="#FF991B" strokeWidth="1.5"/>
<path d="M22.6025 9.15674H7.35254C7.08732 9.15674 6.83297 9.2621 6.64543 9.44963C6.4579 9.63717 6.35254 9.89152 6.35254 10.1567V21.6567C6.35254 21.922 6.4579 22.1763 6.64543 22.3638C6.83297 22.5514 7.08732 22.6567 7.35254 22.6567H22.6025C22.8678 22.6567 23.1221 22.5514 23.3096 22.3638C23.4972 22.1763 23.6025 21.922 23.6025 21.6567V10.1567C23.6025 9.89152 23.4972 9.63717 23.3096 9.44963C23.1221 9.2621 22.8678 9.15674 22.6025 9.15674Z" stroke="#FF991B" strokeWidth="1.5" strokeLinecap="round" strokeLinejoin="round"/>
</g>
<defs>
<clipPath id="clip0_289_893">
<rect width="24" height="24" fill="white" transform="translate(0.352539 0.906738)"/>
</clipPath>
</defs>
</svg>
