<svg width="30" height="30" viewBox="0 0 30 30" fill="none" xmlns="http://www.w3.org/2000/svg">
<path d="M2.76953 16.275V15.025H5.07745C5.158 12.2667 6.07513 9.94417 7.82882 8.0575C9.58252 6.17083 11.7225 5.15417 14.2487 5.0075V3.75H15.457V5.0075C17.9841 5.155 20.1244 6.17167 21.8781 8.0575C23.6318 9.94333 24.5489 12.2654 24.6295 15.0238H26.9362V16.2738L2.76953 16.275ZM6.29907 15.025H23.4079C23.3273 12.51 22.4613 10.4146 20.8099 8.73875C19.1602 7.06375 17.1749 6.22625 14.8541 6.22625C12.5333 6.22625 10.5472 7.06333 8.89578 8.7375C7.24439 10.4117 6.37882 12.5075 6.29907 15.025ZM19.047 16.275H9.74161V23.75H16.727C17.1499 23.75 17.5579 23.6771 17.951 23.5312C18.3441 23.3854 18.7014 23.1667 19.0228 22.875L24.0374 18.5938C23.8143 18.3471 23.5674 18.1621 23.2967 18.0387C23.026 17.9154 22.7409 17.8329 22.4412 17.7913C22.1141 17.7604 21.7935 17.7908 21.4794 17.8825C21.1652 17.9742 20.8671 18.1346 20.5852 18.3638L18.438 20.1437H13.0887V18.8937H18.0102L19.5472 17.6013C19.664 17.5063 19.7438 17.3908 19.7865 17.255C19.8284 17.1192 19.8264 16.9725 19.7804 16.815C19.7337 16.6392 19.6427 16.505 19.5074 16.4125C19.372 16.3208 19.219 16.275 19.0482 16.275M8.53328 16.25H5.92932C5.71263 16.25 5.5346 16.3221 5.39524 16.4663C5.25588 16.6104 5.1862 16.795 5.1862 17.02V24.2313C5.1862 24.4554 5.25588 24.6396 5.39524 24.7837C5.5346 24.9279 5.71263 25 5.92932 25H7.78895C8.00564 25 8.18367 24.9279 8.32303 24.7837C8.46239 24.6396 8.53207 24.4554 8.53207 24.2313L8.53328 16.25ZM7.79016 26.275H5.92932C5.37349 26.275 4.90909 26.0821 4.53611 25.6962C4.16314 25.3104 3.97706 24.83 3.97786 24.255V17.0425C3.97786 16.4675 4.16435 15.9875 4.53732 15.6025C4.9103 15.2175 5.37429 15.0246 5.92932 15.0238H19.024C20.209 15.0238 21.3299 15.2738 22.3868 15.7738C23.4437 16.2738 24.3544 16.9942 25.1189 17.935L25.7484 18.735L19.8034 23.875C19.3676 24.2417 18.8831 24.525 18.3498 24.725C17.8173 24.925 17.276 25.025 16.7258 25.025H9.5942C9.45 25.4 9.21639 25.7017 8.89336 25.93C8.56953 26.1592 8.20139 26.2737 7.78895 26.2737" fill="#FF991B"/>
</svg>
