<?xml version="1.0" encoding="iso-8859-1"?>
<!-- Uploaded to: SVG Repo, www.svgrepo.com, Generator: SVG Repo Mixer Tools -->
<svg fill="#FF991B" height="80px" width="80px" version="1.1" id="Layer_1" xmlns="http://www.w3.org/2000/svg" xmlns:xlink="http://www.w3.org/1999/xlink" 
	 viewBox="0 0 512 512" xml:space="preserve">
<g>
	<g>
		<g>
			<path d="M499.786,439.299h-13.131V199.66c0-10.368-8.435-18.803-18.803-18.803h-19.469v-21.284
				c4.439-2.177,7.511-6.73,7.511-11.999v-14.856c0-7.372-5.998-13.371-13.371-13.371h-106.44c-7.372,0-13.371,5.997-13.371,13.371
				v14.856c0,5.269,3.072,9.823,7.511,11.999v21.284H291.81l-0.001-32.225c0-18.334-6.024-23.226-13.302-27.335
				c-4.678-2.642-10.502-5.93-10.502-38.627V66.647c3.091-2.425,5.087-6.183,5.087-10.406V46.2c0-7.296-5.935-13.231-13.231-13.231
				h-31.628c-7.296,0-13.231,5.935-13.231,13.231v10.041c0,4.223,1.996,7.983,5.088,10.407V82.67
				c0,32.698-5.823,35.986-10.502,38.627c-7.278,4.109-13.302,9.001-13.302,27.335v32.225h-23.357l-0.001-18.613
				c0-18.334-6.024-23.226-13.302-27.335c-4.68-2.642-10.502-5.93-10.502-38.627V80.26c3.091-2.425,5.087-6.183,5.087-10.406V59.813
				c0-7.296-5.935-13.231-13.231-13.231h-31.628c-7.296,0-13.231,5.935-13.231,13.231v10.041c0,4.223,1.996,7.982,5.088,10.406
				v16.022c0,32.698-5.823,35.985-10.502,38.627c-7.277,4.109-13.302,9.001-13.302,27.335v18.613H44.142
				c-10.368,0-18.803,8.435-18.803,18.803v239.639H12.214C5.479,439.299,0,444.777,0,451.513v15.302
				c0,6.735,5.479,12.215,12.214,12.215h487.573c6.735,0,12.214-5.48,12.214-12.215v-15.302
				C512,444.777,506.521,439.299,499.786,439.299z M338.589,135.224h101.426v9.843H338.589V135.224z M432.505,160.944v19.913H346.1
				v-19.913H432.505z M230.878,48.846h26.336v4.748h-26.336V48.846z M212.16,148.631h0.001c0-10.556,1.638-11.481,5.23-13.509
				c10.162-5.737,18.574-13.644,18.574-52.453V69.472h16.162v13.197c0,38.809,8.412,46.716,18.574,52.454
				c3.591,2.027,5.23,2.952,5.23,13.508l0.001,32.225h-2.085v-32.64c0-4.384-3.554-7.939-7.939-7.939h-43.724
				c-4.384,0-7.939,3.554-7.939,7.939v32.64h-2.086V148.631z M257.97,156.156v24.702h-27.846v-24.702H257.97z M111.995,62.46h26.336
				v4.748h-26.336V62.46z M93.278,162.244c0-10.556,1.638-11.481,5.23-13.508c10.162-5.737,18.574-13.644,18.574-52.454V83.085
				h16.162v13.197c0,38.809,8.412,46.716,18.574,52.454c3.591,2.027,5.23,2.953,5.23,13.508l0.001,18.613h-2.086V161.83
				c0-4.384-3.554-7.939-7.939-7.939h-43.722c-4.384,0-7.939,3.554-7.939,7.939v19.027h-2.085V162.244z M139.086,169.769v11.089
				h-27.846v-11.089H139.086z M41.215,199.66c0-1.587,1.34-2.926,2.926-2.926h423.711c1.586,0,2.926,1.34,2.926,2.926v37.216H41.215
				V199.66z M327.18,463.154H15.877v-7.978H327.18V463.154z M452.742,463.154H343.057v-7.978h109.685V463.154z M354.697,439.299
				V295.394h86.404v143.905H354.697z M449.041,279.517H346.759c-4.384,0-7.939,3.554-7.939,7.939v151.843H41.215V252.753h429.563
				v186.546h-13.798V287.455C456.979,283.071,453.425,279.517,449.041,279.517z M496.123,463.154h-27.502v-7.978h27.502V463.154z"/>
			<path d="M298.615,268.652H77.114c-10.368,0-18.803,8.435-18.803,18.803v108.232c0,10.368,8.435,18.803,18.803,18.803h221.501
				c10.368,0,18.803-8.435,18.803-18.803V287.455C317.417,277.086,308.982,268.652,298.615,268.652z M301.54,395.687
				c0,1.587-1.34,2.926-2.926,2.926H77.114c-1.587,0-2.926-1.34-2.926-2.926V287.455c0-1.586,1.34-2.926,2.926-2.926h221.501
				c1.586,0,2.926,1.34,2.926,2.926V395.687z"/>
			<path d="M287.749,290.38H87.978c-4.384,0-7.939,3.554-7.939,7.939v86.504c0,4.384,3.554,7.939,7.939,7.939h199.771
				c4.384,0,7.939-3.554,7.939-7.939v-86.504C295.688,293.934,292.135,290.38,287.749,290.38z M95.917,376.885v-48.938
				l28.254,48.938H95.917z M101.728,306.257h72.386l-36.193,62.688L101.728,306.257z M151.671,376.885l36.193-62.688l36.193,62.688
				H151.671z M201.614,306.257H274l-36.192,62.688L201.614,306.257z M279.811,376.885h-28.254l28.254-48.938V376.885z"/>
			<circle cx="372.509" cy="380.686" r="8.622"/>
		</g>
	</g>
</g>
</svg>