<svg width="56" height="51" viewBox="0 0 56 51" fill="none" xmlns="http://www.w3.org/2000/svg">
<path d="M7.02615 49.027L14.791 41.2596M35.4971 20.556L32.9088 23.1443M35.4971 20.556C34.0865 19.1454 33.3799 18.4388 33.002 17.6779C32.648 16.9634 32.4638 16.1768 32.4638 15.3795C32.4638 14.5821 32.648 13.7956 33.002 13.0811C33.3799 12.3201 34.0865 11.6136 35.4971 10.2029L43.2619 2.43813M35.4971 20.556C36.9077 21.9666 37.6143 22.6732 38.3753 23.0511C39.0897 23.4051 39.8763 23.5893 40.6737 23.5893C41.471 23.5893 42.2576 23.4051 42.972 23.0511C43.733 22.6732 44.4396 21.9666 45.8502 20.556L53.615 12.7912M48.4385 7.61209L40.6737 15.3769M48.4385 49.0244L27.7323 28.3182M27.7323 28.3182L1.84961 2.43555C1.84961 12.3797 5.79931 21.9149 12.8316 28.9472L19.9675 36.0831L27.7323 28.3182Z" stroke="#FF991B" strokeWidth="3.59405" strokeLinecap="round" strokeLinejoin="round"/>
</svg>
