<?xml version="1.0" encoding="UTF-8"?>
<svg xmlns="http://www.w3.org/2000/svg" width="900" height="600" viewBox="0 0 30 20">
  <rect width="30" height="20" fill="#EE1C25"/>
  <polygon fill="#FFDE00" points="5,2 5.588,3.809 7.5,3.809 5.951,4.951 6.539,6.76 5,5.618 3.461,6.76 4.049,4.951 2.5,3.809 4.412,3.809"/>
  <polygon fill="#FFDE00" points="9.5,1.5 9.712,2.175 10.414,2.175 9.846,2.6 10.058,3.275 9.5,2.85 8.942,3.275 9.154,2.6 8.586,2.175 9.288,2.175"/>
  <polygon fill="#FFDE00" points="11,3.5 11.212,4.175 11.914,4.175 11.346,4.6 11.558,5.275 11,4.85 10.442,5.275 10.654,4.6 10.086,4.175 10.788,4.175"/>
  <polygon fill="#FFDE00" points="11,6 11.212,6.675 11.914,6.675 11.346,7.1 11.558,7.775 11,7.35 10.442,7.775 10.654,7.1 10.086,6.675 10.788,6.675"/>
  <polygon fill="#FFDE00" points="9.5,7.5 9.712,8.175 10.414,8.175 9.846,8.6 10.058,9.275 9.5,8.85 8.942,9.275 9.154,8.6 8.586,8.175 9.288,8.175"/>
</svg>
